<svg width="524" height="524" viewBox="0 0 524 524" fill="none" xmlns="http://www.w3.org/2000/svg">
<circle cx="117.763" cy="259.261" r="117.763" fill="url(#paint0_linear)"/>
<path d="M70.6679 301.258L66.1034 287.528H61.7216L57.0841 301.258H60.4435L61.3016 298.483H65.8296L66.6512 301.258H70.6679ZM63.6204 290.997L65.0445 295.853H62.105L63.6204 290.997ZM81.9538 301.258V290.96H78.2292V297.022C78.2292 297.625 78.1562 298.519 76.9329 298.519C76.4034 298.519 76.0018 298.355 75.7827 298.044C75.5636 297.734 75.5636 297.351 75.5636 296.985V290.96H71.839V296.985C71.839 298.41 71.839 299.359 72.4232 300.199C73.044 301.112 74.0299 301.477 75.2714 301.477C77.0607 301.477 78.0466 300.71 78.4118 299.469L79.0691 301.258H81.9538ZM91.4557 298.592H91.3097C91.3097 298.592 90.7619 298.702 90.1777 298.702C89.703 298.702 89.3378 298.629 89.1187 298.337C88.8996 298.044 88.8996 297.606 88.8996 297.241V293.809H91.4557V291.106H88.8996V287.893L85.2481 288.842V291.106H83.4953V293.809H85.2481V297.387C85.2481 298.337 85.2481 299.322 85.7958 300.126C86.4166 301.039 87.512 301.404 89.2283 301.404C90.5428 301.404 91.4557 301.185 91.4557 301.185V298.592ZM103.912 296.073C103.912 292.421 101.867 290.668 98.4345 290.668C94.929 290.668 92.8841 292.494 92.8841 296.146C92.8841 299.797 94.929 301.55 98.3615 301.55C101.867 301.55 103.912 299.724 103.912 296.073ZM98.4162 299.067C97.0834 299.067 96.7548 297.807 96.7548 296.091C96.7548 294.375 97.0834 293.151 98.3797 293.151C99.7126 293.151 100.041 294.411 100.041 296.127C100.041 297.844 99.7126 299.067 98.4162 299.067ZM105.876 290.96V301.258H109.601V295.196C109.601 294.502 109.674 293.699 110.879 293.699C111.39 293.699 111.755 293.845 111.974 294.137C112.193 294.429 112.193 294.758 112.193 295.123V301.258H115.918V295.196C115.918 294.502 115.991 293.699 117.196 293.699C117.707 293.699 118.073 293.845 118.292 294.137C118.511 294.429 118.511 294.758 118.511 295.16V301.258H122.235V295.087C122.235 293.809 122.199 292.823 121.651 292.019C120.994 291.033 119.917 290.741 118.785 290.741C116.813 290.741 116.082 291.618 115.662 292.75C115.334 291.581 114.421 290.741 112.486 290.741C110.66 290.741 109.783 291.508 109.418 292.75L108.761 290.96H105.876ZM125.053 293.918H125.199C125.199 293.918 126.806 293.334 128.467 293.334C129.289 293.334 129.69 293.48 129.909 293.772C130.129 294.064 130.129 294.32 130.129 294.758C130.129 294.758 129.763 294.722 129.197 294.722C126.221 294.722 123.921 295.744 123.921 298.264C123.921 300.235 125.345 301.404 127.463 301.404C128.924 301.404 130.202 300.856 130.567 299.578C130.786 300.893 131.626 301.404 133.159 301.404C134.072 301.404 135.022 301.221 135.022 301.221V298.738C135.022 298.738 134.839 298.775 134.656 298.775C133.744 298.775 133.744 298.008 133.744 297.533V295.014C133.744 293.882 133.744 292.932 133.159 292.129C132.429 291.143 131.005 290.814 128.978 290.814C126.55 290.814 125.053 291.289 125.053 291.289V293.918ZM127.609 297.862C127.609 296.73 129.07 296.73 129.654 296.73H130.129V297.059C130.129 297.314 130.129 297.789 129.946 298.154C129.763 298.519 129.325 298.811 128.704 298.811C127.974 298.811 127.609 298.41 127.609 297.862ZM143.573 298.592H143.427C143.427 298.592 142.879 298.702 142.295 298.702C141.82 298.702 141.455 298.629 141.236 298.337C141.016 298.044 141.016 297.606 141.016 297.241V293.809H143.573V291.106H141.016V287.893L137.365 288.842V291.106H135.612V293.809H137.365V297.387C137.365 298.337 137.365 299.322 137.913 300.126C138.533 301.039 139.629 301.404 141.345 301.404C142.66 301.404 143.573 301.185 143.573 301.185V298.592ZM147.552 286.213C146.237 286.213 145.471 286.834 145.471 288.039C145.471 289.244 146.237 289.865 147.552 289.865C148.867 289.865 149.633 289.244 149.633 288.039C149.633 286.834 148.867 286.213 147.552 286.213ZM145.726 290.96V301.258H149.378V290.96H145.726ZM162.376 296.073C162.376 292.421 160.331 290.668 156.899 290.668C153.393 290.668 151.348 292.494 151.348 296.146C151.348 299.797 153.393 301.55 156.826 301.55C160.331 301.55 162.376 299.724 162.376 296.073ZM156.881 299.067C155.548 299.067 155.219 297.807 155.219 296.091C155.219 294.375 155.548 293.151 156.844 293.151C158.177 293.151 158.506 294.411 158.506 296.127C158.506 297.844 158.177 299.067 156.881 299.067ZM164.341 290.96V301.258H168.065V295.196C168.065 294.575 168.138 293.699 169.453 293.699C170.074 293.699 170.439 293.882 170.658 294.174C170.877 294.484 170.877 294.868 170.877 295.233V301.258H174.601V295.233C174.601 293.809 174.601 292.859 174.017 292.019C173.396 291.106 172.411 290.741 171.114 290.741C169.288 290.741 168.266 291.453 167.883 292.75L167.225 290.96H164.341Z" fill="#91BBF9"/>
<path fill-rule="evenodd" clip-rule="evenodd" d="M121.087 217.64L110.745 211.696C110.589 211.607 110.59 211.383 110.747 211.295L121.136 205.432C121.293 205.343 121.488 205.455 121.487 205.634L121.468 210.419C132.759 212.566 141.856 221.173 144.425 232.315L144.161 231.905C143.96 231.592 143.602 231.407 143.226 231.423C142.851 231.439 142.51 231.652 142.336 231.981L141.388 233.772C139.387 223.727 131.442 215.87 121.455 213.722L121.44 217.441C121.44 217.619 121.243 217.73 121.087 217.64ZM94.5676 233.641L88.5421 243.843C88.4511 243.997 88.225 243.996 88.1351 243.841L82.1915 233.593C82.1017 233.438 82.2155 233.245 82.3965 233.246L87.2473 233.265C89.4237 222.127 98.1486 213.152 109.443 210.618L109.027 210.878C108.71 211.077 108.523 211.43 108.539 211.8C108.555 212.17 108.771 212.507 109.104 212.679L110.92 213.614C100.738 215.588 92.7726 223.426 90.5959 233.278L94.3655 233.292C94.5463 233.293 94.6587 233.487 94.5676 233.641ZM121.129 265.746L110.787 259.802C110.631 259.712 110.435 259.823 110.434 260.001L110.419 263.72C100.432 261.573 92.4871 253.715 90.4865 243.67L89.5382 245.461C89.3641 245.79 89.0229 246.004 88.6477 246.019C88.2727 246.035 87.9144 245.851 87.713 245.538L87.449 245.128C90.0183 256.269 99.1154 264.876 110.406 267.023L110.387 271.809C110.386 271.987 110.582 272.099 110.738 272.011L121.128 266.148C121.285 266.059 121.286 265.836 121.129 265.746ZM143.739 233.601L149.683 243.849C149.773 244.004 149.659 244.197 149.478 244.196L144.627 244.177C142.451 255.315 133.726 264.289 122.432 266.824L122.847 266.564C123.164 266.365 123.351 266.012 123.335 265.641C123.319 265.271 123.103 264.935 122.77 264.763L120.954 263.828C131.136 261.854 139.102 254.016 141.279 244.164L137.509 244.15C137.328 244.149 137.216 243.955 137.307 243.801L143.332 233.599C143.423 233.445 143.649 233.446 143.739 233.601Z" fill="#91BBF9"/>
<path fill-rule="evenodd" clip-rule="evenodd" d="M104.358 244.242C104.134 243.788 103.936 243.317 103.77 242.842C103.331 241.59 102.136 240.748 100.797 240.748C100.236 240.748 99.7798 240.298 99.7798 239.744V237.67C99.7798 237.117 100.236 236.667 100.797 236.667C102.136 236.667 103.331 235.825 103.77 234.572C103.936 234.097 104.134 233.626 104.358 233.173C104.948 231.978 104.708 230.546 103.76 229.611C103.568 229.421 103.462 229.169 103.462 228.901C103.462 228.633 103.568 228.381 103.76 228.192L105.246 226.725C105.64 226.337 106.283 226.334 106.676 226.716L106.686 226.726C107.634 227.661 109.085 227.898 110.296 227.316C110.756 227.095 111.233 226.899 111.714 226.735C112.984 226.302 113.837 225.124 113.837 223.803C113.837 223.249 114.294 222.799 114.855 222.799H116.957C117.518 222.799 117.974 223.249 117.974 223.803C117.974 225.124 118.828 226.302 120.098 226.735C120.579 226.899 121.056 227.095 121.516 227.316C122.727 227.898 124.178 227.661 125.128 226.724L125.13 226.722C125.527 226.334 126.171 226.336 126.566 226.725L128.052 228.192C128.244 228.381 128.35 228.633 128.35 228.901C128.35 229.169 128.244 229.421 128.052 229.611C127.104 230.546 126.864 231.978 127.454 233.174C127.678 233.626 127.875 234.097 128.042 234.572C128.481 235.825 129.676 236.667 131.015 236.667C131.576 236.667 132.032 237.117 132.032 237.67V239.744C132.032 240.298 131.576 240.748 131.015 240.748C129.676 240.748 128.481 241.589 128.042 242.842C127.876 243.317 127.678 243.788 127.454 244.242C126.864 245.437 127.104 246.868 128.052 247.803C128.244 247.993 128.35 248.245 128.35 248.513C128.35 248.781 128.244 249.033 128.052 249.223L126.565 250.689C126.373 250.879 126.118 250.983 125.846 250.983C125.575 250.983 125.319 250.879 125.126 250.688C124.178 249.754 122.728 249.517 121.516 250.099C121.056 250.32 120.579 250.515 120.098 250.679C118.828 251.112 117.974 252.291 117.974 253.612C117.974 254.165 117.518 254.615 116.957 254.615H114.855C114.294 254.615 113.837 254.165 113.837 253.612C113.837 252.291 112.984 251.112 111.714 250.679C111.233 250.515 110.756 250.32 110.296 250.099C109.866 249.892 109.386 249.783 108.909 249.783C108.067 249.783 107.278 250.105 106.685 250.689C106.493 250.879 106.237 250.983 105.966 250.983C105.694 250.983 105.438 250.879 105.246 250.689L103.76 249.223C103.568 249.033 103.462 248.781 103.462 248.513C103.462 248.245 103.568 247.993 103.761 247.803C104.708 246.868 104.948 245.437 104.358 244.242ZM130.052 243.528C130.195 243.12 130.582 242.846 131.015 242.846C132.748 242.846 134.159 241.454 134.159 239.744V237.67C134.159 235.961 132.748 234.569 131.015 234.569C130.582 234.569 130.195 234.295 130.052 233.887C129.857 233.332 129.627 232.783 129.366 232.255C129.173 231.864 129.249 231.397 129.556 231.094C130.15 230.509 130.477 229.73 130.477 228.901C130.477 228.073 130.15 227.294 129.556 226.709L128.069 225.242C126.844 224.033 124.849 224.033 123.622 225.244L123.619 225.247C123.313 225.546 122.842 225.619 122.448 225.43C121.912 225.172 121.355 224.945 120.793 224.753C120.379 224.612 120.101 224.23 120.101 223.803C120.101 222.093 118.691 220.702 116.957 220.702H114.855C113.122 220.702 111.711 222.093 111.711 223.803C111.711 224.23 111.434 224.612 111.02 224.753C110.458 224.945 109.901 225.172 109.365 225.43C108.972 225.619 108.502 225.546 108.197 225.25L108.189 225.242C106.963 224.033 104.969 224.033 103.743 225.242L102.257 226.709C101.663 227.294 101.336 228.073 101.336 228.901C101.336 229.73 101.663 230.509 102.257 231.095C102.564 231.397 102.64 231.863 102.447 232.255C102.186 232.783 101.955 233.333 101.761 233.887C101.618 234.295 101.231 234.569 100.797 234.569C99.064 234.569 97.6538 235.961 97.6538 237.67V239.744C97.6538 241.454 99.064 242.846 100.797 242.846C101.231 242.846 101.618 243.12 101.761 243.528C101.955 244.082 102.186 244.632 102.447 245.16C102.64 245.551 102.564 246.018 102.256 246.321C101.663 246.906 101.336 247.685 101.336 248.513C101.336 249.342 101.663 250.12 102.257 250.706L103.743 252.173C104.337 252.758 105.126 253.081 105.966 253.081C106.806 253.081 107.595 252.758 108.19 252.172C108.496 251.869 108.968 251.794 109.365 251.985C109.901 252.242 110.458 252.47 111.02 252.662C111.434 252.803 111.711 253.185 111.711 253.612C111.711 255.322 113.122 256.713 114.855 256.713H116.957C118.691 256.713 120.101 255.322 120.101 253.612C120.101 253.185 120.379 252.803 120.793 252.662C121.355 252.47 121.912 252.242 122.448 251.985C122.844 251.794 123.317 251.87 123.624 252.173C124.217 252.758 125.007 253.081 125.847 253.081C126.686 253.081 127.476 252.758 128.069 252.173L129.556 250.706C130.15 250.121 130.477 249.342 130.477 248.513C130.477 247.685 130.149 246.906 129.555 246.32C129.249 246.017 129.172 245.551 129.366 245.16C129.627 244.632 129.858 244.082 130.052 243.528Z" fill="#659FF7"/>
<path fill-rule="evenodd" clip-rule="evenodd" d="M115.906 230.682C120.392 230.682 124.042 234.282 124.042 238.708C124.042 243.133 120.392 246.734 115.906 246.734C111.42 246.734 107.77 243.133 107.77 238.708C107.77 234.282 111.42 230.682 115.906 230.682ZM115.906 248.831C121.565 248.831 126.168 244.29 126.168 238.708C126.168 233.126 121.565 228.584 115.906 228.584C110.248 228.584 105.644 233.126 105.644 238.708C105.644 244.29 110.248 248.831 115.906 248.831Z" fill="#659FF7"/>
<circle cx="268.39" cy="406.237" r="117.763" fill="url(#paint1_linear)"/>
<path d="M238.543 445.86C238.543 445.86 236.936 445.312 234.855 445.312C231.422 445.312 229.341 446.773 229.341 449.402C229.341 453.802 235.22 453.419 235.22 455.573C235.22 456.303 234.563 456.705 233.431 456.705C231.824 456.705 229.56 455.902 229.56 455.902H229.414V458.714C229.414 458.714 231.021 459.334 233.376 459.334C237.082 459.334 239.2 457.801 239.2 455.025C239.2 450.388 233.321 450.936 233.321 448.927C233.321 448.343 233.796 447.941 234.928 447.941C236.425 447.941 238.397 448.635 238.397 448.635H238.543V445.86ZM250.258 456.303H250.112C250.112 456.303 248.323 456.815 246.935 456.815C245.328 456.815 244.488 456.121 244.488 455.025H250.915C250.915 452.944 250.915 451.703 250.075 450.461C249.236 449.219 247.848 448.599 245.986 448.599C242.517 448.599 240.764 450.735 240.764 454.058C240.764 455.646 241.166 457.034 242.298 458.056C243.174 458.86 244.415 459.334 246.57 459.334C248.651 459.334 250.258 458.896 250.258 458.896V456.303ZM244.452 452.944C244.452 451.903 244.854 451.009 245.949 451.009C247.008 451.009 247.264 451.867 247.264 452.944H244.452ZM260.328 456.303H260.182C260.182 456.303 259.342 456.559 258.502 456.559C256.896 456.559 256.384 455.646 256.384 454.04C256.384 452.433 256.896 451.52 258.502 451.52C259.342 451.52 260.182 451.776 260.182 451.776H260.328V449.037C260.328 449.037 259.379 448.745 258.009 448.745C254.376 448.745 252.514 450.79 252.514 454.076C252.514 457.362 254.376 459.334 258.028 459.334C259.415 459.334 260.328 459.042 260.328 459.042V456.303ZM272.518 459.188V448.891H268.794V454.952C268.794 455.555 268.721 456.45 267.497 456.45C266.968 456.45 266.566 456.285 266.347 455.975C266.128 455.664 266.128 455.281 266.128 454.916V448.891H262.404V454.916C262.404 456.34 262.404 457.289 262.988 458.129C263.609 459.042 264.594 459.407 265.836 459.407C267.625 459.407 268.611 458.64 268.976 457.399L269.634 459.188H272.518ZM281.947 448.708H281.728C280.085 448.708 278.916 449.219 278.588 450.972L277.858 448.891H275.009V459.188H278.734V453.93C278.734 453.254 278.734 452.177 280.614 452.177C281.217 452.177 281.947 452.287 281.947 452.287V448.708ZM285.269 444.144C283.954 444.144 283.187 444.765 283.187 445.97C283.187 447.175 283.954 447.795 285.269 447.795C286.583 447.795 287.35 447.175 287.35 445.97C287.35 444.765 286.583 444.144 285.269 444.144ZM283.443 448.891V459.188H287.094V448.891H283.443ZM296.587 456.523H296.441C296.441 456.523 295.894 456.632 295.309 456.632C294.835 456.632 294.469 456.559 294.25 456.267C294.031 455.975 294.031 455.537 294.031 455.172V451.739H296.587V449.037H294.031V445.823L290.38 446.773V449.037H288.627V451.739H290.38V455.318C290.38 456.267 290.38 457.253 290.927 458.056C291.548 458.969 292.644 459.334 294.36 459.334C295.674 459.334 296.587 459.115 296.587 459.115V456.523ZM309.075 448.891H305.715L303.78 454.587L301.772 448.891H297.755L301.918 458.787C301.553 459.553 301.224 460.028 300.165 460.028C299.581 460.028 298.997 459.882 298.997 459.882H298.85V462.511C298.85 462.511 299.398 462.657 300.366 462.657C303.47 462.657 304.346 461.16 305.241 458.823L309.075 448.891Z" fill="#91BBF9"/>
<path d="M290.629 377.76C290.267 376.453 289.303 375.502 287.978 375.027L286.894 374.551C287.978 376.691 288.34 379.068 287.858 381.445C286.291 388.695 282.436 395.351 276.773 400.58C271.111 405.81 264.002 409.257 256.291 410.564C255.689 410.683 254.966 410.683 254.243 410.683C252.677 410.683 251.111 410.326 249.785 409.851C253.279 415.794 258.821 421.736 267.376 426.966C267.978 427.323 268.821 427.323 269.424 426.966C297.737 409.376 292.918 385.011 290.629 377.76ZM253.038 380.375C261.231 381.683 268.942 384.892 275.087 389.765C276.532 390.953 277.978 392.142 279.303 393.568C282.075 389.884 284.123 385.605 285.087 380.969C285.809 377.642 284.243 374.314 281.231 372.531L270.026 368.252C268.942 367.777 267.737 367.777 266.653 368.252L248.58 375.027C247.376 375.502 246.291 376.572 245.93 377.879C245.568 378.949 245.207 380.613 244.845 382.396C247.135 380.613 250.147 379.9 253.038 380.375Z" fill="#91BBF9"/>
<path d="M256.502 407.831C258.911 407.355 261.321 406.761 263.61 405.929C262.887 404.384 262.285 402.72 261.803 401.056C260.116 395.589 259.634 390.002 260.237 384.654C258.068 383.941 255.779 383.465 253.49 383.109C251.08 382.752 248.67 383.465 246.984 385.01C246.14 385.724 245.538 386.674 245.176 387.625C244.935 392.498 245.417 398.322 247.827 404.503C249.393 406.761 252.164 408.068 255.056 408.068C255.538 407.949 256.02 407.949 256.502 407.831Z" fill="#659FF7"/>
<circle cx="406.237" cy="259.261" r="117.763" fill="url(#paint2_linear)"/>
<path d="M353.876 287.528V301.258H357.674V287.528H353.876ZM360.379 290.96V301.258H364.104V295.196C364.104 294.575 364.177 293.699 365.491 293.699C366.112 293.699 366.477 293.882 366.696 294.174C366.915 294.484 366.915 294.868 366.915 295.233V301.258H370.64V295.233C370.64 293.809 370.64 292.859 370.056 292.019C369.435 291.106 368.449 290.741 367.153 290.741C365.327 290.741 364.304 291.453 363.921 292.75L363.264 290.96H360.379ZM380.067 298.592H379.921C379.921 298.592 379.373 298.702 378.789 298.702C378.314 298.702 377.949 298.629 377.73 298.337C377.511 298.044 377.511 297.606 377.511 297.241V293.809H380.067V291.106H377.511V287.893L373.859 288.842V291.106H372.107V293.809H373.859V297.387C373.859 298.337 373.859 299.322 374.407 300.126C375.028 301.039 376.123 301.404 377.84 301.404C379.154 301.404 380.067 301.185 380.067 301.185V298.592ZM390.99 298.373H390.843C390.843 298.373 389.054 298.884 387.667 298.884C386.06 298.884 385.22 298.19 385.22 297.095H391.647C391.647 295.014 391.647 293.772 390.807 292.531C389.967 291.289 388.58 290.668 386.717 290.668C383.248 290.668 381.495 292.804 381.495 296.127C381.495 297.716 381.897 299.103 383.029 300.126C383.906 300.929 385.147 301.404 387.301 301.404C389.383 301.404 390.99 300.966 390.99 300.966V298.373ZM385.184 295.014C385.184 293.973 385.585 293.078 386.681 293.078C387.74 293.078 387.995 293.936 387.995 295.014H385.184ZM393.757 287.017V301.258H397.408V287.017H393.757ZM399.89 287.017V301.258H403.542V287.017H399.89ZM407.849 286.213C406.535 286.213 405.768 286.834 405.768 288.039C405.768 289.244 406.535 289.865 407.849 289.865C409.164 289.865 409.931 289.244 409.931 288.039C409.931 286.834 409.164 286.213 407.849 286.213ZM406.024 290.96V301.258H409.675V290.96H406.024ZM421.578 294.064C421.578 293.681 421.523 293.316 421.396 292.987C421.523 292.932 421.724 292.896 422.053 292.896C422.491 292.896 422.893 292.969 422.893 292.969V290.084H422.674C422.071 290.084 420.903 290.084 420.446 291.672C419.606 291.052 418.346 290.705 416.722 290.705C413.618 290.705 411.865 291.91 411.865 294.064C411.865 295.452 412.577 296.419 413.928 296.931C413.161 297.04 411.719 297.46 411.719 298.866C411.719 300.254 413.088 300.655 413.198 300.674C413.015 300.71 411.244 301.02 411.244 302.609C411.244 304.033 412.632 304.836 416.32 304.836C420.775 304.836 422.601 303.668 422.601 301.367C422.601 298.41 419.533 298.41 418.62 298.41H416.502C416.046 298.41 415.37 298.41 415.37 297.844C415.37 297.533 415.553 297.369 415.644 297.296C415.991 297.332 416.338 297.351 416.722 297.351C419.825 297.351 421.578 296.219 421.578 294.064ZM417.525 301.075C417.908 301.075 418.73 301.112 418.73 301.787C418.73 302.353 418.164 302.718 416.539 302.718C415.097 302.718 414.312 302.426 414.312 301.678C414.312 301.258 414.567 301.075 414.567 301.075H417.525ZM416.722 295.233C415.955 295.233 415.517 294.831 415.517 294.046C415.517 293.261 415.955 292.823 416.722 292.823C417.488 292.823 417.927 293.261 417.927 294.046C417.927 294.831 417.488 295.233 416.722 295.233ZM433.193 298.373H433.047C433.047 298.373 431.258 298.884 429.87 298.884C428.263 298.884 427.423 298.19 427.423 297.095H433.85C433.85 295.014 433.85 293.772 433.01 292.531C432.171 291.289 430.783 290.668 428.921 290.668C425.452 290.668 423.699 292.804 423.699 296.127C423.699 297.716 424.101 299.103 425.233 300.126C426.109 300.929 427.35 301.404 429.505 301.404C431.586 301.404 433.193 300.966 433.193 300.966V298.373ZM427.387 295.014C427.387 293.973 427.789 293.078 428.884 293.078C429.943 293.078 430.199 293.936 430.199 295.014H427.387ZM435.96 290.96V301.258H439.685V295.196C439.685 294.575 439.758 293.699 441.072 293.699C441.693 293.699 442.058 293.882 442.277 294.174C442.496 294.484 442.496 294.868 442.496 295.233V301.258H446.221V295.233C446.221 293.809 446.221 292.859 445.637 292.019C445.016 291.106 444.03 290.741 442.734 290.741C440.908 290.741 439.885 291.453 439.502 292.75L438.845 290.96H435.96ZM455.94 298.373H455.794C455.794 298.373 454.954 298.629 454.114 298.629C452.508 298.629 451.997 297.716 451.997 296.109C451.997 294.502 452.508 293.59 454.114 293.59C454.954 293.59 455.794 293.845 455.794 293.845H455.94V291.106C455.94 291.106 454.991 290.814 453.622 290.814C449.988 290.814 448.126 292.859 448.126 296.146C448.126 299.432 449.988 301.404 453.64 301.404C455.027 301.404 455.94 301.112 455.94 301.112V298.373ZM466.749 298.373H466.603C466.603 298.373 464.814 298.884 463.426 298.884C461.819 298.884 460.979 298.19 460.979 297.095H467.406C467.406 295.014 467.406 293.772 466.566 292.531C465.726 291.289 464.339 290.668 462.477 290.668C459.008 290.668 457.255 292.804 457.255 296.127C457.255 297.716 457.656 299.103 458.788 300.126C459.665 300.929 460.906 301.404 463.061 301.404C465.142 301.404 466.749 300.966 466.749 300.966V298.373ZM460.943 295.014C460.943 293.973 461.345 293.078 462.44 293.078C463.499 293.078 463.755 293.936 463.755 295.014H460.943Z" fill="#91BBF9"/>
<path d="M388.142 224.651C390.69 224.651 392.781 223.042 393.5 220.788H398.531L400.819 229.094H418.396L420.748 220.724H425.78C426.499 222.977 428.59 224.587 431.138 224.587C434.275 224.587 436.758 222.076 436.758 219.05C436.758 216.024 434.209 213.513 431.138 213.513C428.59 213.513 426.499 215.122 425.78 217.376H418.135L415.848 225.681H411.339V216.217C413.626 215.509 415.259 213.449 415.259 210.938C415.259 207.847 412.711 205.401 409.64 205.401C406.503 205.401 404.02 207.912 404.02 210.938C404.02 213.449 405.654 215.509 407.941 216.217V225.681H403.432L401.145 217.376H393.5C392.781 215.122 390.69 213.513 388.142 213.513C385.005 213.513 382.522 216.024 382.522 219.05C382.522 222.076 385.071 224.651 388.142 224.651ZM431.138 216.861C432.38 216.861 433.36 217.827 433.36 219.05C433.36 220.273 432.38 221.239 431.138 221.239C429.897 221.239 428.916 220.273 428.916 219.05C428.916 217.827 429.897 216.861 431.138 216.861ZM409.64 208.749C410.881 208.749 411.862 209.714 411.862 210.938C411.862 212.161 410.881 213.127 409.64 213.127C408.398 213.127 407.418 212.161 407.418 210.938C407.418 209.714 408.398 208.749 409.64 208.749ZM388.142 216.861C389.383 216.861 390.363 217.827 390.363 219.05C390.363 220.273 389.383 221.239 388.142 221.239C386.9 221.239 385.92 220.273 385.92 219.05C385.92 217.827 386.9 216.861 388.142 216.861Z" fill="#659FF7"/>
<path d="M431.138 247.314C428.59 247.314 426.499 248.924 425.78 251.177H420.748L418.461 242.872H400.819L398.531 251.241H393.5C392.781 248.988 390.69 247.378 388.142 247.378C385.005 247.378 382.522 249.889 382.522 252.915C382.522 256.006 385.071 258.452 388.142 258.452C390.69 258.452 392.781 256.843 393.5 254.589H401.145L403.432 246.284H407.941V255.748C405.654 256.456 404.02 258.517 404.02 261.028C404.02 264.118 406.569 266.565 409.64 266.565C412.776 266.565 415.259 264.054 415.259 261.028C415.259 258.517 413.626 256.456 411.339 255.748V246.219H415.848L418.135 254.589H425.78C426.499 256.843 428.59 258.452 431.138 258.452C434.275 258.452 436.758 255.941 436.758 252.915C436.758 249.825 434.209 247.314 431.138 247.314ZM388.142 255.104C386.9 255.104 385.92 254.139 385.92 252.915C385.92 251.692 386.9 250.726 388.142 250.726C389.383 250.726 390.363 251.692 390.363 252.915C390.363 254.139 389.383 255.104 388.142 255.104ZM409.64 263.217C408.398 263.217 407.418 262.251 407.418 261.028C407.418 259.804 408.398 258.839 409.64 258.839C410.881 258.839 411.862 259.804 411.862 261.028C411.862 262.251 410.881 263.217 409.64 263.217ZM431.138 255.104C429.897 255.104 428.916 254.139 428.916 252.915C428.916 251.692 429.897 250.726 431.138 250.726C432.38 250.726 433.36 251.692 433.36 252.915C433.36 254.139 432.38 255.104 431.138 255.104Z" fill="#659FF7"/>
<path d="M431.138 230.445C428.59 230.445 426.499 232.055 425.78 234.308H393.5C392.781 232.055 390.69 230.445 388.142 230.445C385.005 230.445 382.522 232.956 382.522 235.982C382.522 239.008 385.071 241.519 388.142 241.519C390.69 241.519 392.781 239.91 393.5 237.656H425.78C426.499 239.91 428.59 241.519 431.138 241.519C434.275 241.519 436.758 239.008 436.758 235.982C436.758 232.956 434.209 230.445 431.138 230.445ZM388.142 238.171C386.9 238.171 385.92 237.206 385.92 235.982C385.92 234.759 386.9 233.793 388.142 233.793C389.383 233.793 390.363 234.759 390.363 235.982C390.363 237.206 389.383 238.171 388.142 238.171ZM431.138 238.171C429.897 238.171 428.916 237.206 428.916 235.982C428.916 234.759 429.897 233.793 431.138 233.793C432.38 233.793 433.36 234.759 433.36 235.982C433.36 237.206 432.38 238.171 431.138 238.171Z" fill="#91BBF9"/>
<path fill-rule="evenodd" clip-rule="evenodd" d="M268.39 235.526C333.429 235.526 386.153 182.802 386.153 117.763C386.153 52.7243 333.429 0 268.39 0C203.352 0 150.627 52.7243 150.627 117.763C150.627 127.962 151.924 137.858 154.361 147.296C192.286 159.685 221.741 190.806 231.792 229.728C243.312 233.491 255.614 235.526 268.39 235.526Z" fill="url(#paint3_linear)"/>
<path d="M216.225 142.798C216.225 138.635 213.888 135.696 209.415 135.696C204.978 135.696 202.495 138.599 202.495 142.908C202.495 147.07 204.832 150.01 209.306 150.01C213.742 150.01 216.225 147.107 216.225 142.798ZM209.36 147.235C207.462 147.235 206.512 145.774 206.512 142.853C206.512 139.932 207.462 138.471 209.36 138.471C211.259 138.471 212.209 139.932 212.209 142.853C212.209 145.774 211.259 147.235 209.36 147.235ZM218.337 135.477V149.718H220.71L221.477 148.294C222.061 149.499 223.267 149.937 224.618 149.937C227.539 149.937 229.292 147.892 229.292 144.478C229.292 141.173 227.648 139.201 224.983 139.201C223.486 139.201 222.39 139.822 221.988 140.954V135.477H218.337ZM223.705 141.976C225.056 141.976 225.421 143.108 225.421 144.624C225.421 146.139 225.056 147.271 223.705 147.271C222.354 147.271 221.988 146.139 221.988 144.624C221.988 143.108 222.354 141.976 223.705 141.976ZM238.422 139.676C238.422 139.676 237.181 139.274 235.501 139.274C232.543 139.274 230.864 140.516 230.864 142.597C230.864 145.957 235.246 145.482 235.246 146.833C235.246 147.198 234.917 147.417 234.15 147.417C232.909 147.417 231.01 146.833 231.01 146.833H230.864V149.389C230.864 149.389 232.178 149.864 234.15 149.864C237.4 149.864 238.934 148.549 238.934 146.468C238.934 142.962 234.552 143.401 234.552 142.269C234.552 141.976 234.844 141.721 235.611 141.721C236.67 141.721 238.276 142.232 238.276 142.232H238.422V139.676ZM249.857 146.833H249.711C249.711 146.833 247.921 147.344 246.534 147.344C244.927 147.344 244.087 146.65 244.087 145.555H250.514C250.514 143.474 250.514 142.232 249.674 140.991C248.834 139.749 247.447 139.128 245.584 139.128C242.115 139.128 240.363 141.264 240.363 144.587C240.363 146.176 240.764 147.563 241.896 148.586C242.773 149.389 244.014 149.864 246.169 149.864C248.25 149.864 249.857 149.426 249.857 149.426V146.833ZM244.051 143.474C244.051 142.433 244.452 141.538 245.548 141.538C246.607 141.538 246.862 142.396 246.862 143.474H244.051ZM259.562 139.238H259.343C257.7 139.238 256.531 139.749 256.202 141.502L255.472 139.42H252.624V149.718H256.348V144.46C256.348 143.784 256.348 142.707 258.229 142.707C258.832 142.707 259.562 142.816 259.562 142.816V139.238ZM260.108 139.42L263.833 149.718H267.703L271.501 139.42H268.068L266.097 145.92L264.198 139.42H260.108ZM273.191 142.378H273.337C273.337 142.378 274.944 141.794 276.605 141.794C277.427 141.794 277.829 141.94 278.048 142.232C278.267 142.524 278.267 142.78 278.267 143.218C278.267 143.218 277.902 143.181 277.336 143.181C274.36 143.181 272.059 144.204 272.059 146.723C272.059 148.695 273.483 149.864 275.601 149.864C277.062 149.864 278.34 149.316 278.705 148.038C278.924 149.353 279.764 149.864 281.298 149.864C282.211 149.864 283.16 149.681 283.16 149.681V147.198C283.16 147.198 282.977 147.235 282.795 147.235C281.882 147.235 281.882 146.468 281.882 145.993V143.474C281.882 142.342 281.882 141.392 281.298 140.589C280.567 139.603 279.143 139.274 277.117 139.274C274.688 139.274 273.191 139.749 273.191 139.749V142.378ZM275.747 146.322C275.747 145.19 277.208 145.19 277.792 145.19H278.267V145.518C278.267 145.774 278.267 146.249 278.084 146.614C277.902 146.979 277.463 147.271 276.843 147.271C276.112 147.271 275.747 146.87 275.747 146.322ZM284.985 135.477V149.718H287.359L288.125 148.294C288.71 149.499 289.915 149.937 291.266 149.937C294.187 149.937 295.94 147.892 295.94 144.478C295.94 141.173 294.297 139.201 291.631 139.201C290.134 139.201 289.038 139.822 288.637 140.954V135.477H284.985ZM290.353 141.976C291.704 141.976 292.069 143.108 292.069 144.624C292.069 146.139 291.704 147.271 290.353 147.271C289.002 147.271 288.637 146.139 288.637 144.624C288.637 143.108 289.002 141.976 290.353 141.976ZM299.738 134.673C298.423 134.673 297.656 135.294 297.656 136.499C297.656 137.704 298.423 138.325 299.738 138.325C301.052 138.325 301.819 137.704 301.819 136.499C301.819 135.294 301.052 134.673 299.738 134.673ZM297.912 139.42V149.718H301.563V139.42H297.912ZM304.045 135.477V149.718H307.697V135.477H304.045ZM312.005 134.673C310.69 134.673 309.923 135.294 309.923 136.499C309.923 137.704 310.69 138.325 312.005 138.325C313.319 138.325 314.086 137.704 314.086 136.499C314.086 135.294 313.319 134.673 312.005 134.673ZM310.179 139.42V149.718H313.83V139.42H310.179ZM323.323 147.052H323.177C323.177 147.052 322.63 147.162 322.045 147.162C321.571 147.162 321.205 147.089 320.986 146.797C320.767 146.504 320.767 146.066 320.767 145.701V142.269H323.323V139.566H320.767V136.353L317.116 137.302V139.566H315.363V142.269H317.116V145.847C317.116 146.797 317.116 147.782 317.663 148.586C318.284 149.499 319.38 149.864 321.096 149.864C322.41 149.864 323.323 149.645 323.323 149.645V147.052ZM335.811 139.42H332.451L330.516 145.117L328.508 139.42H324.491L328.654 149.316C328.289 150.083 327.96 150.558 326.901 150.558C326.317 150.558 325.733 150.412 325.733 150.412H325.586V153.041C325.586 153.041 326.134 153.187 327.102 153.187C330.206 153.187 331.082 151.69 331.977 149.353L335.811 139.42Z" fill="#91BBF9"/>
<path d="M302.867 95.2384C302.769 94.7402 302.644 94.2475 302.492 93.7624V93.4672C302.222 92.6244 301.872 91.8089 301.445 91.0316L291.27 67.2667C290.875 65.1973 289.713 63.3469 288.012 62.075C286.31 60.8032 284.19 60.2008 282.064 60.3848C279.937 60.5688 277.956 61.5261 276.505 63.0708C275.054 64.6154 274.237 66.637 274.212 68.7428H264.337C264.312 66.637 263.495 64.6154 262.044 63.0708C260.593 61.5261 258.612 60.5688 256.485 60.3848C254.359 60.2008 252.239 60.8032 250.537 62.075C248.836 63.3469 247.675 65.1973 247.279 67.2667L237.104 91.0316C236.707 91.7879 236.382 92.5785 236.131 93.3933V93.6886C235.98 94.1737 235.855 94.6664 235.757 95.1646C235.08 98.834 235.904 102.619 238.05 105.689C240.195 108.76 243.487 110.867 247.204 111.549L249.673 111.771C253.033 111.768 256.285 110.598 258.857 108.466C261.429 106.333 263.158 103.374 263.738 100.11V99.6667C263.914 98.4936 263.939 97.3034 263.813 96.1241V93.0243H274.661V96.1241C274.535 97.3034 274.56 98.4936 274.736 99.6667V100.11C275.317 103.374 277.045 106.333 279.617 108.466C282.189 110.598 285.441 111.768 288.801 111.771L291.27 111.549C294.999 110.901 298.315 108.819 300.489 105.761C302.664 102.703 303.519 98.9181 302.867 95.2384ZM281.843 63.5765C283.31 63.3393 284.812 63.6776 286.028 64.519C287.244 65.3604 288.079 66.638 288.352 68.0785C288.393 68.2633 288.469 68.4387 288.577 68.5952L295.684 85.2749C292.699 83.6749 289.232 83.1823 285.911 83.8863C282.59 84.5904 279.634 86.4444 277.579 89.1127L277.28 70.2927V70.1451C277.139 69.4179 277.146 68.6705 277.3 67.9459C277.453 67.2213 277.751 66.5338 278.175 65.9232C278.599 65.3126 279.142 64.7909 279.771 64.3881C280.401 63.9853 281.105 63.7095 281.843 63.5765ZM264.187 71.6949H274.362L274.512 82.3965H264.037L264.187 71.6949ZM256.631 63.5765C258.091 63.8464 259.386 64.6695 260.239 65.8695C261.092 67.0695 261.435 68.5512 261.194 69.9974V70.1451L260.97 89.1127C258.901 86.4384 255.927 84.5869 252.589 83.8959C249.252 83.205 245.774 83.7206 242.79 85.3487L249.897 68.669C250.005 68.5125 250.081 68.3371 250.122 68.1523C250.248 67.4249 250.519 66.7293 250.919 66.1054C251.319 65.4814 251.839 64.9414 252.451 64.5163C253.063 64.0912 253.753 63.7894 254.483 63.6281C255.213 63.4669 255.969 63.4493 256.706 63.5765H256.631ZM256.107 106.752C254.281 107.977 252.132 108.648 249.924 108.681C247.716 108.714 245.547 108.109 243.684 106.939C241.822 105.769 240.347 104.086 239.444 102.098C238.54 100.111 238.247 97.9053 238.6 95.7551C238.676 95.3316 238.776 94.9127 238.9 94.5004L239.797 92.3601C240.76 90.624 242.177 89.1742 243.901 88.1618C245.625 87.1493 247.592 86.6112 249.598 86.6034L251.543 86.751C253.93 87.1409 256.127 88.2765 257.81 89.9904C259.494 91.7043 260.575 93.9061 260.895 96.2717V99.5929C260.629 101.035 260.075 102.41 259.266 103.639C258.457 104.867 257.409 105.926 256.182 106.752H256.107ZM263.963 90.0722V85.3487H274.512V90.146L263.963 90.0722ZM298.078 104.095C296.796 105.89 295.004 107.272 292.928 108.066C290.852 108.86 288.585 109.031 286.41 108.558C284.236 108.085 282.252 106.989 280.707 105.407C279.163 103.825 278.126 101.828 277.729 99.6667V96.2717C278.06 93.9666 279.116 91.8219 280.746 90.1387C282.377 88.4554 284.501 87.3182 286.82 86.8867C289.139 86.4552 291.537 86.751 293.677 87.7327C295.817 88.7144 297.592 90.3326 298.752 92.3601L299.649 94.5004C299.773 94.9127 299.873 95.3316 299.949 95.7551C300.212 97.1981 300.183 98.6785 299.862 100.11C299.541 101.542 298.934 102.896 298.078 104.095Z" fill="#659FF7"/>
<path d="M290.148 90.2937C289.122 90.0132 288.048 89.9476 286.995 90.1011C285.942 90.2545 284.933 90.6236 284.033 91.1846C283.133 91.7456 282.362 92.4862 281.77 93.3586C281.177 94.2311 280.776 95.2162 280.593 96.2506C280.409 97.285 280.447 98.3458 280.704 99.3649C280.961 100.384 281.431 101.339 282.084 102.168C282.738 102.997 283.559 103.682 284.497 104.179C285.435 104.676 286.468 104.975 287.529 105.054L288.876 105.202C290.751 105.15 292.54 104.418 293.903 103.146C295.266 101.874 296.106 100.152 296.263 98.3084C296.421 96.4645 295.884 94.628 294.756 93.1497C293.628 91.6713 291.987 90.6546 290.148 90.2937ZM293.365 98.4859C293.222 99.3485 292.831 100.153 292.24 100.803C291.648 101.454 290.88 101.924 290.026 102.157C289.172 102.391 288.268 102.378 287.422 102.121C286.575 101.864 285.82 101.373 285.248 100.706C284.675 100.039 284.308 99.2241 284.19 98.3578C284.072 97.4916 284.207 96.61 284.581 95.8176C284.955 95.0251 285.551 94.3548 286.299 93.8859C287.047 93.4171 287.915 93.1694 288.801 93.172H289.624C290.819 93.3882 291.88 94.0583 292.579 95.0381C293.279 96.018 293.561 97.2294 293.365 98.4121V98.4859Z" fill="#91BBF9"/>
<path d="M251.02 90.2937C249.994 90.0132 248.92 89.9476 247.867 90.1011C246.814 90.2545 245.805 90.6236 244.905 91.1846C244.005 91.7456 243.235 92.4862 242.642 93.3586C242.05 94.2311 241.649 95.2162 241.465 96.2506C241.282 97.285 241.32 98.3458 241.577 99.3649C241.833 100.384 242.304 101.339 242.957 102.168C243.61 102.997 244.432 103.682 245.37 104.179C246.307 104.676 247.34 104.975 248.402 105.054L249.748 105.202C251.623 105.15 253.413 104.418 254.776 103.146C256.138 101.874 256.979 100.152 257.136 98.3084C257.293 96.4645 256.757 94.628 255.629 93.1497C254.5 91.6713 252.86 90.6546 251.02 90.2937ZM254.237 98.4859C254.094 99.3485 253.704 100.153 253.112 100.803C252.521 101.454 251.752 101.924 250.899 102.157C250.045 102.391 249.141 102.378 248.294 102.121C247.447 101.864 246.693 101.373 246.12 100.706C245.547 100.039 245.18 99.2241 245.062 98.3578C244.944 97.4916 245.08 96.61 245.454 95.8176C245.827 95.0251 246.424 94.3548 247.171 93.8859C247.919 93.4171 248.787 93.1694 249.673 93.172H250.496C251.691 93.3882 252.753 94.0583 253.452 95.0381C254.152 96.018 254.433 97.2294 254.237 98.4121V98.4859Z" fill="#91BBF9"/>
<circle cx="268.39" cy="259.261" r="70.2927" fill="url(#paint4_linear)"/>
<path fill-rule="evenodd" clip-rule="evenodd" d="M266.466 274.482L270.623 271.989C271.044 272.466 271.76 273.269 272.485 274.067C273.019 274.658 273.563 275.241 274.115 275.814C274.431 276.139 274.651 276.354 274.818 276.499L277.75 285.622L276.686 286.09L266.466 274.482ZM278.394 276.445C276.555 275.601 275.99 275.394 275.738 275.338C275.314 274.969 273.907 273.461 272.218 271.565L281.415 270.115C281.669 270.573 282.03 270.96 282.462 271.239L279.998 277.194C279.564 276.988 278.984 276.716 278.394 276.445ZM287.112 269.216L294.687 268.022L293.833 271.925L286.716 276.454L281.554 277.256L283.847 271.714C285.386 271.842 286.781 270.776 287.112 269.216H287.112V269.216ZM259.855 266.521L264.792 264.761L269.656 270.83L265.16 273.527L256.534 273.688L252.677 269.081L256.158 267.84C256.965 268.733 258.319 268.782 259.183 267.949C259.57 267.575 259.809 267.066 259.855 266.521ZM266.261 264.237L271.615 262.329C271.834 262.569 272.092 262.772 272.38 262.924L270.46 269.478L266.261 264.237ZM240.298 266.383C240.552 265.731 240.56 265.006 240.319 264.349L244.786 261.053L250.158 268.265L245.511 269.385L240.298 266.383ZM291.124 258.853L294.564 266.52L287.079 267.7C286.923 267.1 286.6 266.562 286.152 266.149L289.082 259.073C289.77 259.195 290.476 259.119 291.125 258.853H291.124ZM273.809 263.236C275.191 263.155 276.307 262.037 276.432 260.611L286.374 257.067C286.692 257.671 287.157 258.18 287.72 258.541L284.865 265.438C283.213 265 281.531 266.029 281.107 267.737C281.043 267.997 281.01 268.264 281.011 268.532L281.013 268.658L271.794 270.112L273.809 263.236ZM245.971 260.18L252.469 255.388C253.276 256.275 254.404 256.778 255.582 256.776C256.417 256.776 257.197 256.527 257.856 256.101L263.802 263.524L259.481 265.064C258.806 264.061 257.472 263.812 256.501 264.51C255.926 264.924 255.583 265.603 255.582 266.328C255.582 266.37 255.584 266.412 255.586 266.454L251.68 267.845L245.97 260.179L245.971 260.18ZM292.359 258.031C293.266 257.128 293.685 255.819 293.475 254.534L299.075 252.538L301.206 258.416L298.932 264.842L295.994 266.135L292.359 258.031ZM235.503 255.583L236.186 249.504L243.9 259.861L239.458 263.137C238.982 262.75 238.394 262.54 237.787 262.54C237.641 262.54 237.499 262.552 237.36 262.576L235.503 255.583ZM275.327 258.046L277.339 251.178L284.981 245.164L287.924 251.723C286.686 252.408 285.915 253.742 285.916 255.193C285.916 255.341 285.923 255.488 285.939 255.632L276.172 259.114C275.978 258.693 275.688 258.326 275.328 258.046H275.327ZM236.692 247.719L239.824 245.238L248.45 244.362L252.438 249.341C251.705 250.158 251.299 251.232 251.299 252.347C251.299 252.983 251.428 253.588 251.662 254.134L245.083 258.987L236.692 247.719ZM258.938 255.097C259.539 254.315 259.865 253.346 259.863 252.347C259.865 251.066 259.327 249.847 258.392 249.008L261.898 243.265L275.844 251.095L273.971 257.486C272.439 257.303 271.054 258.438 270.877 260.023C270.865 260.133 270.859 260.244 270.859 260.354C270.859 260.57 270.884 260.78 270.926 260.985L265.27 263.001L258.938 255.097ZM250.196 244.185L260.239 243.166L257.149 248.227C256.65 248.024 256.118 247.92 255.581 247.92C254.889 247.919 254.206 248.093 253.593 248.426L250.196 244.185ZM286.166 244.232L289.047 241.965C289.512 242.319 290.074 242.51 290.651 242.51C291.014 242.51 291.361 242.436 291.675 242.303L298.314 251.22L292.962 253.127C292.27 251.964 291.043 251.255 289.722 251.256C289.59 251.256 289.458 251.264 289.327 251.277L286.166 244.232ZM243.409 241.079C243.836 241.324 244.316 241.453 244.804 241.452C245.202 241.452 245.582 241.368 245.928 241.215L247.33 242.965L241.3 243.577L243.409 241.079ZM281.422 237.234L284.355 243.769L278.058 248.723L281.422 237.234ZM282.785 236.698L287.983 239.244C287.898 239.762 287.956 240.296 288.15 240.781L285.539 242.837L282.785 236.698V236.698ZM247.078 240.294C247.466 239.775 247.676 239.137 247.675 238.482C247.675 238.427 247.674 238.374 247.671 238.319L253.505 236.539L264.872 233.836C265.013 234.143 265.204 234.421 265.432 234.658L261.222 241.556L249.076 242.789L247.078 240.294ZM270.073 233.647L280.349 235.709L276.274 249.626L262.675 241.991L266.693 235.411C268.09 235.801 269.547 235.041 270.073 233.647ZM267.434 229.652C265.953 229.651 264.722 230.83 264.607 232.357L253.152 235.08L247.228 236.887C246.379 235.503 244.605 235.092 243.266 235.97C242.434 236.516 241.932 237.464 241.932 238.482C241.932 239.053 242.088 239.586 242.358 240.038L239.048 243.959L234.985 247.177L234.025 255.698L236.022 263.217C234.887 264.224 234.758 265.991 235.731 267.163C236.246 267.784 236.997 268.139 237.786 268.139V268.138C238.367 268.139 238.933 267.946 239.4 267.587L245.293 270.98L251.161 269.567L255.88 275.205L265.022 275.034L276.236 287.895L279.289 286.587L276.342 277.166C277.512 277.681 280.178 278.934 280.208 278.949L280.265 278.976L287.225 277.896L295.118 272.874L296.256 267.653L300.081 265.97L302.756 258.41L300.159 251.251L300.149 251.22L292.825 241.381C293.716 240.139 293.466 238.386 292.265 237.464C291.798 237.105 291.233 236.912 290.651 236.912C289.832 236.912 289.097 237.288 288.602 237.884L281.591 234.45L281.507 234.409L270.236 232.149C270.028 230.714 268.837 229.653 267.434 229.652Z" fill="white"/>
<defs>
<linearGradient id="paint0_linear" x1="117.763" y1="144.397" x2="117.763" y2="377.024" gradientUnits="userSpaceOnUse">
<stop stop-color="#2D3A5B"/>
<stop offset="1" stop-color="#1A2440"/>
</linearGradient>
<linearGradient id="paint1_linear" x1="268.39" y1="291.372" x2="268.39" y2="524" gradientUnits="userSpaceOnUse">
<stop stop-color="#2D3A5B"/>
<stop offset="1" stop-color="#1A2440"/>
</linearGradient>
<linearGradient id="paint2_linear" x1="406.237" y1="144.397" x2="406.237" y2="380.676" gradientUnits="userSpaceOnUse">
<stop stop-color="#2D3A5B"/>
<stop offset="1" stop-color="#1A2440"/>
</linearGradient>
<linearGradient id="paint3_linear" x1="268.39" y1="2.8984" x2="268.39" y2="228.679" gradientUnits="userSpaceOnUse">
<stop stop-color="#2D3A5B"/>
<stop offset="1" stop-color="#1A2440"/>
</linearGradient>
<linearGradient id="paint4_linear" x1="275.693" y1="188.969" x2="322.993" y2="311.673" gradientUnits="userSpaceOnUse">
<stop stop-color="#3481F4"/>
<stop offset="1" stop-color="#0B5ACE"/>
</linearGradient>
</defs>
</svg>
